<svg xmlns="http://www.w3.org/2000/svg" viewBox="0 0 69.64 54.63"><defs><style>.cls-1{fill:#fff;}</style></defs><g id="Layer_2" data-name="Layer 2"><g id="Layer_1-2" data-name="Layer 1"><path class="cls-1" d="M69.54,26.69a1.29,1.29,0,0,0-1.2-.78c-4.91-2.81-4.21-7-2.85-15.28.46-2.83.89-6-.62-8.62A4.41,4.41,0,0,0,62.27.08a3.05,3.05,0,0,0-1.41,0,2.94,2.94,0,0,0-1.24.67c-.18.13-.08.45.15.37,1-.34,2.27.52,2.93,1.25.92,1,.92,2.67.89,4-.07,3.09-1.07,6.13-1.45,9.19A15.45,15.45,0,0,0,63,23.83a8.72,8.72,0,0,0,2.57,3.35A9.06,9.06,0,0,0,63,30.46a15.47,15.47,0,0,0-.87,8.27c.38,3.06,1.38,6.1,1.45,9.2,0,1.27,0,3-.89,4-.66.72-1.91,1.58-2.93,1.24-.23-.07-.33.24-.15.37a2.86,2.86,0,0,0,1.24.68,2.81,2.81,0,0,0,1.41,0,4.26,4.26,0,0,0,2.57-1.92c1.51-2.6,1.08-5.77.62-8.63-.87-5.3-2.55-12.19,2.85-15.28a1.28,1.28,0,0,0,1.2-.78,1.07,1.07,0,0,0,.1-.47.8.8,0,0,0-.1-.45Z"/><path class="cls-1" d="M46.94,25.26H22.69v2.95H46.94Z"/><path class="cls-1" d="M21.63,13h-1A1.64,1.64,0,0,0,19,14.63v24.2a1.63,1.63,0,0,0,1.62,1.64h1a1.62,1.62,0,0,0,1.64-1.62V14.65A1.63,1.63,0,0,0,21.65,13Z"/><path class="cls-1" d="M14.6,17.06h-1a1.6,1.6,0,0,0-1.6,1.6V34.81a1.6,1.6,0,0,0,1.6,1.6h1a1.6,1.6,0,0,0,1.6-1.6V18.66A1.6,1.6,0,0,0,14.6,17.06Z"/><path class="cls-1" d="M12.21,25.26H9.43v2.95h2.78Z"/><path class="cls-1" d="M49,13H48a1.64,1.64,0,0,0-1.64,1.62v24.2A1.63,1.63,0,0,0,48,40.47h1a1.62,1.62,0,0,0,1.64-1.62V14.65A1.63,1.63,0,0,0,49.05,13Z"/><path class="cls-1" d="M56.06,17.06h-1a1.6,1.6,0,0,0-1.6,1.6V34.81a1.6,1.6,0,0,0,1.6,1.6h1a1.6,1.6,0,0,0,1.6-1.6V18.66A1.6,1.6,0,0,0,56.06,17.06Z"/><path class="cls-1" d="M60.2,25.26H57.43v2.95h2.78Z"/><path class="cls-1" d="M.1,27.93a1.24,1.24,0,0,0,.49.57,1.28,1.28,0,0,0,.71.21C6.71,31.8,5,38.71,4.16,44c-.46,2.83-.89,6,.61,8.63a4.42,4.42,0,0,0,2.58,1.92,3.05,3.05,0,0,0,1.41,0A2.94,2.94,0,0,0,10,53.87c.18-.13.08-.45-.15-.37-1,.34-2.27-.52-2.94-1.24-.91-1-.91-2.68-.89-4,.08-3.1,1.07-6.14,1.46-9.2a15.47,15.47,0,0,0-.87-8.27A8.86,8.86,0,0,0,4,27.52a9.21,9.21,0,0,0,2.58-3.35,15.45,15.45,0,0,0,.87-8.27C7.09,12.84,6.1,9.8,6,6.7c0-1.27,0-3,.89-3.95C7.58,2,8.83,1.17,9.85,1.51c.23.07.33-.24.15-.37A2.86,2.86,0,0,0,8.76.43a3.05,3.05,0,0,0-1.41,0A4.37,4.37,0,0,0,4.77,2.32C3.27,4.92,3.7,8.09,4.16,11,5,16.25,6.71,23.14,1.3,26.23A1.32,1.32,0,0,0,.1,27a1.1,1.1,0,0,0-.1.47A.87.87,0,0,0,.1,27.93Z"/></g></g></svg>