<svg width="70" height="55" xmlns="http://www.w3.org/2000/svg" fill="none">

 <g>
  <title>Layer 1</title>
  <path id="svg_1" fill="currentcolor" d="m69.76354,26.6798c-0.102,-0.2332 -0.27,-0.4313 -0.483,-0.57c-0.213,-0.1386 -0.463,-0.2117 -0.717,-0.21c-4.91,-2.81 -4.21,-7 -2.85,-15.28c0.46,-2.82998 0.89,-5.99998 -0.62,-8.61998c-0.586,-0.95395 -1.517,-1.64522 -2.6,-1.93c-0.466,-0.10224 -0.949,-0.09207 -1.41,0.02967c-0.46,0.12173 -0.886,0.35152 -1.24,0.67033c-0.18,0.13 -0.08,0.45 0.15,0.37c1,-0.34001 2.27,0.52 2.93,1.25c0.92,1 0.92,2.67 0.89,4c-0.07,3.09 -1.07,6.12998 -1.45,9.18998c-0.473,2.7843 -0.172,5.6452 0.87,8.27c0.569,1.3108 1.451,2.4613 2.57,3.35c-1.088,0.8827 -1.958,2.0053 -2.54,3.28c-1.041,2.6251 -1.342,5.4857 -0.87,8.27c0.38,3.06 1.38,6.1 1.45,9.2c0,1.27 0,3 -0.89,3.95c-0.66,0.72 -1.91,1.58 -2.93,1.24c-0.23,-0.07 -0.33,0.24 -0.15,0.37c0.35,0.3261 0.775,0.5607 1.237,0.6828c0.462,0.1222 0.948,0.1281 1.413,0.0172c1.073,-0.2835 1.994,-0.9717 2.57,-1.92c1.51,-2.6 1.08,-5.77 0.62,-8.63c-0.87,-5.3 -2.55,-12.19 2.85,-15.28c0.254,0.0017 0.504,-0.0713 0.717,-0.21c0.213,-0.1386 0.381,-0.3368 0.483,-0.57c0.071,-0.1462 0.105,-0.3075 0.1,-0.47c0.015,-0.1568 -0.02,-0.3142 -0.1,-0.45l0,0z"/>
  <path id="svg_2" fill="currentcolor" d="m47.16354,25.25l-24.25,0l0,2.95l24.25,0l0,-2.95z"/>
  <path id="svg_3" fill="currentcolor" d="m21.85354,13l-1.03,0c-0.9057,0 -1.64,0.7343 -1.64,1.64l0,24.18c0,0.9057 0.7343,1.64 1.64,1.64l1.03,0c0.9057,0 1.64,-0.7343 1.64,-1.64l0,-24.18c0,-0.9057 -0.7343,-1.64 -1.64,-1.64z"/>
  <path id="svg_4" fill="currentcolor" d="m14.82354,17.05l-1.01,0c-0.8837,0 -1.6,0.7163 -1.6,1.6l0,16.15c0,0.8837 0.7163,1.6 1.6,1.6l1.01,0c0.8836,0 1.6,-0.7163 1.6,-1.6l0,-16.15c0,-0.8837 -0.7164,-1.6 -1.6,-1.6z"/>
  <path id="svg_5" fill="currentcolor" d="m12.43354,25.25l-2.78,0l0,2.95l2.78,0l0,-2.95z"/>
  <path id="svg_6" fill="currentcolor" d="m49.25354,13l-1.03,0c-0.9058,0 -1.64,0.7343 -1.64,1.64l0,24.18c0,0.9057 0.7342,1.64 1.64,1.64l1.03,0c0.9057,0 1.64,-0.7343 1.64,-1.64l0,-24.18c0,-0.9057 -0.7343,-1.64 -1.64,-1.64z"/>
  <path id="svg_7" fill="currentcolor" d="m56.28354,17.05l-1.01,0c-0.884,0 -1.6,0.7163 -1.6,1.6l0,16.15c0,0.8837 0.716,1.6 1.6,1.6l1.01,0c0.884,0 1.6,-0.7163 1.6,-1.6l0,-16.15c0,-0.8837 -0.716,-1.6 -1.6,-1.6z"/>
  <path id="svg_8" fill="currentcolor" d="m60.42354,25.25l-2.78,0l0,2.95l2.78,0l0,-2.95z"/>
  <path id="svg_9" fill="currentcolor" d="m0.32354,27.9198c0.1038,0.2316 0.2723,0.4284 0.4851,0.5668c0.2128,0.1383 0.4611,0.2123 0.7149,0.2132c5.41,3.09 3.73,10 2.86,15.28c-0.46,2.83 -0.89,6 0.61,8.63c0.5869,0.9426 1.5085,1.6285 2.58,1.92c0.4656,0.1022 0.9488,0.0921 1.4096,-0.0297c0.4609,-0.1217 0.8861,-0.3515 1.2404,-0.6703c0.18,-0.13 0.08,-0.45 -0.15,-0.37c-1,0.34 -2.27,-0.52 -2.94,-1.24c-0.91,-1 -0.91,-2.68 -0.89,-4c0.08,-3.1 1.07,-6.14 1.46,-9.2c0.4682,-2.7845 0.1674,-5.6439 -0.87,-8.27c-0.5866,-1.2803 -1.4713,-2.4016 -2.58,-3.27c1.1108,-0.8989 1.9946,-2.0464 2.58,-3.35c1.0364,-2.6263 1.3371,-5.4855 0.87,-8.27c-0.39,-3.06 -1.38,-6.09999 -1.46,-9.19999c0,-1.27 0,-2.99999 0.89,-3.94999c0.67,-0.72001 1.92,-1.58 2.94,-1.24c0.23,0.07 0.33,-0.24 0.15,-0.37c-0.3502,-0.32537 -0.7752,-0.55945 -1.2374,-0.68154c-0.4622,-0.12209 -0.9474,-0.12843 -1.4126,-0.01846c-1.0692,0.2786 -1.9919,0.95454 -2.58,1.88999c-1.5,2.6 -1.07,5.77001 -0.61,8.62999c0.87,5.3 2.55,12.19 -2.86,15.28c-0.2538,0.0009 -0.5021,0.0749 -0.7149,0.2133c-0.2128,0.1383 -0.3813,0.3351 -0.4851,0.5667c-0.0663,0.1478 -0.1004,0.308 -0.1,0.47c-0.0104,0.1629 0.0242,0.3255 0.1,0.47z"/>
 </g>
</svg>